HIERARCHY
ROOT Hips
{
	OFFSET 0.00000 0.00000 0.00000
	CHANNELS 6 Xposition Yposition Zposition Zrotation Yrotation Xrotation 
	JOINT LHipJoint
	{
		OFFSET 0 0 0
		CHANNELS 3 Zrotation Yrotation Xrotation
		JOINT LeftUpLeg
		{
			OFFSET 1.92384 -1.64427 0.83032
			CHANNELS 3 Zrotation Yrotation Xrotation
			JOINT LeftLeg
			{
				OFFSET 2.52872 -6.94761 0.00000
				CHANNELS 3 Zrotation Yrotation Xrotation
				JOINT LeftFoot
				{
					OFFSET 2.51827 -6.91890 0.00000
					CHANNELS 3 Zrotation Yrotation Xrotation
					JOINT LeftToeBase
					{
						OFFSET 0.22757 -0.62524 2.06528
						CHANNELS 3 Zrotation Yrotation Xrotation
						End Site
						{
							OFFSET 0.00000 -0.00000 1.08218
						}
					}
				}
			}
		}
	}
	JOINT RHipJoint
	{
		OFFSET 0 0 0
		CHANNELS 3 Zrotation Yrotation Xrotation
		JOINT RightUpLeg
		{
			OFFSET -2.09517 -1.64427 0.83032
			CHANNELS 3 Zrotation Yrotation Xrotation
			JOINT RightLeg
			{
				OFFSET -2.55173 -7.01082 0.00000
				CHANNELS 3 Zrotation Yrotation Xrotation
				JOINT RightFoot
				{
					OFFSET -2.50265 -6.87598 0.00000
					CHANNELS 3 Zrotation Yrotation Xrotation
					JOINT RightToeBase
					{
						OFFSET -0.22612 -0.62126 1.98677
						CHANNELS 3 Zrotation Yrotation Xrotation
						End Site
						{
							OFFSET -0.00000 -0.00000 1.04433
						}
					}
				}
			}
		}
	}
	JOINT LowerBack
	{
		OFFSET 0 0 0
		CHANNELS 3 Zrotation Yrotation Xrotation
		JOINT Spine
		{
			OFFSET 0.02839 1.68926 0.31690
			CHANNELS 3 Zrotation Yrotation Xrotation
			JOINT Spine1
			{
				OFFSET -0.01522 1.70183 0.21192
				CHANNELS 3 Zrotation Yrotation Xrotation
				JOINT Neck
				{
					OFFSET 0 0 0
					CHANNELS 3 Zrotation Yrotation Xrotation
					JOINT Neck1
					{
						OFFSET -0.04523 1.88988 0.10630
						CHANNELS 3 Zrotation Yrotation Xrotation
						JOINT Head
						{
							OFFSET 0.05172 1.78070 -0.56858
							CHANNELS 3 Zrotation Yrotation Xrotation
							End Site
							{
								OFFSET 0.01532 1.90392 -0.20434
							}
						}
					}
				}
				JOINT LeftShoulder
				{
					OFFSET 0 0 0
					CHANNELS 3 Zrotation Yrotation Xrotation
					JOINT LeftArm
					{
						OFFSET 3.25522 0.75486 0.22086
						CHANNELS 3 Zrotation Yrotation Xrotation
						JOINT LeftForeArm
						{
							OFFSET 4.85645 -0.00000 0.00000
							CHANNELS 3 Zrotation Yrotation Xrotation
							JOINT LeftHand
							{
								OFFSET 2.79874 -0.00000 0.00000
								CHANNELS 3 Zrotation Yrotation Xrotation
								JOINT LeftFingerBase
								{
									OFFSET 0 0 0
									CHANNELS 3 Zrotation Yrotation Xrotation
									JOINT LeftHandIndex1
									{
										OFFSET 0.57340 -0.00000 0.00000
										CHANNELS 3 Zrotation Yrotation Xrotation
										End Site
										{
											OFFSET 0.46229 -0.00000 0.00000
										}
									}
								}
								JOINT LThumb
								{
									OFFSET 0 0 0
									CHANNELS 3 Zrotation Yrotation Xrotation
									End Site
									{
										OFFSET 0.46935 -0.00000 0.46935
									}
								}
							}
						}
					}
				}
				JOINT RightShoulder
				{
					OFFSET 0 0 0
					CHANNELS 3 Zrotation Yrotation Xrotation
					JOINT RightArm
					{
						OFFSET -3.29079 0.52751 0.36356
						CHANNELS 3 Zrotation Yrotation Xrotation
						JOINT RightForeArm
						{
							OFFSET -4.67018 -0.00000 0.00000
							CHANNELS 3 Zrotation Yrotation Xrotation
							JOINT RightHand
							{
								OFFSET -2.65534 -0.00000 0.00000
								CHANNELS 3 Zrotation Yrotation Xrotation
								JOINT RightFingerBase
								{
									OFFSET 0 0 0
									CHANNELS 3 Zrotation Yrotation Xrotation
									JOINT RightHandIndex1
									{
										OFFSET -0.59407 -0.00000 0.00000
										CHANNELS 3 Zrotation Yrotation Xrotation
										End Site
										{
											OFFSET -0.47895 -0.00000 0.00000
										}
									}
								}
								JOINT RThumb
								{
									OFFSET 0 0 0
									CHANNELS 3 Zrotation Yrotation Xrotation
									End Site
									{
										OFFSET -0.48627 -0.00000 0.48627
									}
								}
							}
						}
					}
				}
			}
		}
	}
}
MOTION
Frames: 11
Frame Time: .0083333
9.4308 10.6598 18.4231 0 0 0 0 0 0 -21 0 0 0 0 0 0 0 0 0 0 0 0 0 0 21 0 0 0 0 0 0 0 0 0 0 0 0 0 0 0 0 0 0 0 0 0 0 -16 0 0 21 0 0 11 0 0 0 -8 0 0 0 0 0 0 0 0 0 0 0 0 0 0 0 0 0 0 0 0 8 0 0 0 0 0 0 0 0 0 0 0 0 0 0 0 0 0
9.4308 10.6598 18.4231 -8.7532 1.7450 29.3433 0.0000 0.0000 0.0000 13.0031 -14.1884 -118.6564 19.0598 19.9788 87.2500 -0.0112 2.8679 1.2666 0.4379 -4.2462 -11.7704 0.0000 0.0000 0.0000 13.0690 22.2072 -115.7578 -17.6786 -19.8703 83.1985 -0.4288 4.8945 15.1400 -0.1431 -2.4381 6.7180 10.3588 3.8158 -50.2708 1.4725 -0.8532 -11.3216 -3.5023 -0.4642 7.5172 -4.2546 -2.6853 -9.4711 3.6353 -4.7379 41.2035 1.6013 -2.2130 16.6636 -0.0000 0.0000 0.0000 -69.0325 11.3718 43.8015 62.4013 -56.9166 -36.3463 -0.0000 -0.0000 22.8399 -14.5720 23.7108 -5.9677 -7.1250 0.0000 -0.0000 -41.8069 48.9340 -4.8396 -0.0000 0.0000 0.0000 66.4210 -3.5286 51.3012 -49.5058 52.7942 -25.7800 0.0000 0.0000 37.1945 12.2446 -10.7373 -2.3154 7.1250 -0.0000 -0.0000 32.9625 -38.4671 6.1217
9.4269 10.6626 18.4130 -8.7220 1.6470 29.2627 0.0000 0.0000 0.0000 12.9703 -14.1506 -118.5205 19.0376 19.9778 87.1851 -0.0101 2.8683 1.3477 0.4457 -4.2833 -11.8751 0.0000 0.0000 0.0000 12.9846 22.0584 -115.8381 -17.6876 -19.8713 83.2252 -0.4361 5.3104 15.5550 -0.0924 -1.9606 5.3967 10.2486 3.7755 -50.0723 1.4571 -0.8162 -11.3627 -3.4610 -0.4507 7.4567 -4.2640 -2.7220 -9.4037 3.7000 -4.8184 41.1108 1.6177 -2.2409 16.6033 -0.0000 0.0000 0.0000 -69.0393 11.3682 43.6676 62.6141 -56.9672 -36.5245 -0.0000 -0.0000 22.6466 -14.6905 23.6065 -5.9933 -7.1250 0.0000 -0.0000 -41.8309 48.8335 -4.7232 -0.0000 0.0000 0.0000 66.6423 -3.5986 50.9259 -49.4769 52.7824 -25.7570 0.0000 0.0000 37.3061 12.1950 -10.6402 -2.2851 7.1250 -0.0000 -0.0000 32.8856 -38.3882 6.1779
9.4227 10.6642 18.4045 -8.6917 1.5483 29.1679 0.0000 0.0000 0.0000 12.9523 -14.1083 -118.3902 19.0261 19.9772 87.1515 -0.0101 2.8899 1.3706 0.4400 -4.2563 -11.7989 0.0000 0.0000 0.0000 12.9231 21.9217 -115.8866 -17.7013 -19.8728 83.2652 -0.4076 5.7778 15.5621 -0.0394 -1.2813 3.5232 10.1340 3.7408 -49.8992 1.4374 -0.7753 -11.3768 -3.4200 -0.4329 7.4298 -4.2888 -2.7647 -9.3807 3.7812 -4.9095 41.0299 1.6422 -2.2728 16.5629 -0.0000 -0.0000 0.0000 -69.0383 11.3568 43.5322 62.8373 -57.0198 -36.7118 -0.0000 -0.0000 22.4872 -14.8652 23.4972 -6.0410 -7.1250 0.0000 -0.0000 -41.8971 48.7204 -4.5977 -0.0000 -0.0000 0.0000 66.8592 -3.6557 50.5547 -49.4707 52.7798 -25.7520 0.0000 0.0000 37.4200 12.2096 -10.5743 -2.2739 7.1250 -0.0000 -0.0000 32.8695 -38.3299 6.2294
9.4183 10.6650 18.4007 -8.6574 1.4464 29.1683 0.0000 0.0000 0.0000 12.9916 -14.0719 -118.3486 19.0166 19.9768 87.1236 -0.0104 2.9519 1.4105 0.4431 -4.2709 -11.8401 0.0000 0.0000 0.0000 12.9003 21.8331 -115.9515 -17.7116 -19.8740 83.2956 -0.3316 6.1293 14.8414 -0.0176 -0.8576 2.3570 10.0093 3.7292 -49.9015 1.4139 -0.7249 -11.3815 -3.3692 -0.4091 7.4376 -4.3240 -2.8062 -9.2893 3.8380 -4.9871 40.9387 1.6605 -2.3050 16.4986 -0.0000 0.0000 0.0000 -69.0376 11.3540 43.4420 63.0304 -57.0648 -36.8738 -0.0000 -0.0000 22.2784 -14.8709 23.4856 -6.0406 -7.1250 0.0000 -0.0000 -41.8935 48.7104 -4.5851 -0.0000 0.0000 0.0000 67.0487 -3.7640 50.2239 -49.5055 52.7941 -25.7798 0.0000 0.0000 37.5548 12.2282 -10.5157 -2.2650 7.1250 -0.0000 -0.0000 32.8594 -38.2775 6.2767
9.4140 10.6656 18.3959 -8.6292 1.3441 29.1421 0.0000 0.0000 0.0000 13.0191 -14.0310 -118.2853 19.0097 19.9765 87.1036 -0.0106 3.0002 1.4440 0.4442 -4.2761 -11.8547 0.0000 0.0000 0.0000 12.8651 21.7372 -116.0065 -17.7204 -19.8750 83.3217 -0.2863 6.3559 14.4050 -0.0076 -0.5613 1.5425 9.8951 3.7123 -49.8539 1.3948 -0.6804 -11.3868 -3.3221 -0.3883 7.4368 -4.3574 -2.8463 -9.2247 3.8968 -5.0634 40.8537 1.6794 -2.3358 16.4447 0.0000 -0.0000 0.0000 -69.0352 11.3443 43.3385 63.2247 -57.1097 -37.0369 -0.0000 -0.0000 22.0823 -14.9163 23.4503 -6.0513 -7.1250 0.0000 -0.0000 -41.9061 48.6757 -4.5452 0.0000 -0.0000 0.0000 67.2408 -3.8454 49.8916 -49.5271 52.8030 -25.7970 0.0000 0.0000 37.6835 12.2462 -10.4518 -2.2548 7.1250 -0.0000 -0.0000 32.8468 -38.2206 6.3277
9.4097 10.6658 18.3925 -8.6062 1.2421 29.1334 0.0000 0.0000 0.0000 13.0696 -13.9898 -118.2439 19.0061 19.9763 87.0930 -0.0110 3.0614 1.4741 0.4447 -4.2785 -11.8615 0.0000 0.0000 0.0000 12.8394 21.6590 -116.0480 -17.7251 -19.8755 83.3353 -0.2426 6.4100 13.8072 -0.0034 -0.3781 1.0390 9.7875 3.7021 -49.8452 1.3777 -0.6370 -11.3845 -3.2750 -0.3672 7.4489 -4.3945 -2.8842 -9.1588 3.9480 -5.1320 40.7707 1.6969 -2.3650 16.3912 0.0000 -0.0000 0.0000 -69.0293 11.3321 43.2454 63.4024 -57.1504 -37.1861 -0.0000 -0.0000 21.8875 -14.9180 23.4347 -6.0482 -7.1250 0.0000 -0.0000 -41.8966 48.6631 -4.5286 0.0000 -0.0000 0.0000 67.4195 -3.9219 49.5823 -49.5548 52.8143 -25.8190 0.0000 0.0000 37.8123 12.2707 -10.3971 -2.2478 7.1250 -0.0000 -0.0000 32.8428 -38.1710 6.3738
9.4053 10.6657 18.3898 -8.5906 1.1406 29.1373 0.0000 0.0000 0.0000 13.1445 -13.9494 -118.2173 19.0047 19.9762 87.0888 -0.0116 3.1368 1.5066 0.4453 -4.2816 -11.8703 0.0000 0.0000 0.0000 12.8142 21.5975 -116.0716 -17.7234 -19.8753 83.3304 -0.2068 6.2692 13.1044 -0.0019 -0.2798 0.7689 9.6901 3.6981 -49.8620 1.3642 -0.5951 -11.3792 -3.2285 -0.3466 7.4668 -4.4371 -2.9192 -9.0871 3.9918 -5.1918 40.6902 1.7136 -2.3925 16.3371 -0.0000 0.0000 0.0000 -69.0205 11.3204 43.1651 63.5597 -57.1862 -37.3184 -0.0000 -0.0000 21.7020 -14.8726 23.4371 -6.0297 -7.1250 0.0000 -0.0000 -41.8615 48.6720 -4.5340 -0.0000 0.0000 0.0000 67.5819 -3.9925 49.3005 -49.5834 52.8261 -25.8418 0.0000 0.0000 37.9343 12.2919 -10.3496 -2.2417 7.1250 -0.0000 -0.0000 32.8393 -38.1279 6.4139
9.4010 10.6656 18.3878 -8.5828 1.0433 29.1519 0.0000 0.0000 0.0000 13.2467 -13.9120 -118.2047 19.0050 19.9762 87.0898 -0.0124 3.2273 1.5415 0.4455 -4.2826 -11.8730 0.0000 0.0000 0.0000 12.7841 21.5487 -116.0712 -17.7133 -19.8742 83.3006 -0.1799 5.9636 12.3459 -0.0011 -0.2164 0.5945 9.6055 3.6997 -49.9027 1.3539 -0.5568 -11.3692 -3.1848 -0.3271 7.4918 -4.4833 -2.9515 -9.0188 4.0256 -5.2425 40.6175 1.7281 -2.4182 16.2875 0.0000 0.0000 0.0000 -69.0095 11.3075 43.0945 63.6908 -57.2158 -37.4285 -0.0000 -0.0000 21.5362 -14.7697 23.4427 -5.9877 -7.1250 0.0000 -0.0000 -41.7817 48.6921 -4.5461 0.0000 0.0000 0.0000 67.7289 -4.0526 49.0456 -49.6104 52.8371 -25.8633 0.0000 0.0000 38.0418 12.3112 -10.3103 -2.2369 7.1250 -0.0000 -0.0000 32.8377 -38.0921 6.4476
9.3965 10.6655 18.3861 -8.5811 0.9512 29.1728 0.0000 0.0000 0.0000 13.3753 -13.8806 -118.2004 19.0061 19.9763 87.0930 -0.0134 3.3349 1.5812 0.4455 -4.2823 -11.8721 0.0000 0.0000 0.0000 12.7396 21.5095 -116.0431 -17.6928 -19.8719 83.2405 -0.1599 5.5421 11.5626 -0.0005 -0.1387 0.3812 9.5310 3.7044 -49.9577 1.3466 -0.5217 -11.3583 -3.1433 -0.3092 7.5188 -4.5308 -2.9814 -8.9474 4.0473 -5.2848 40.5511 1.7390 -2.4421 16.2396 -0.0000 0.0000 0.0000 -68.9960 11.2961 43.0372 63.7974 -57.2397 -37.5182 -0.0000 -0.0000 21.3896 -14.6185 23.4504 -5.9259 -7.1250 0.0000 -0.0000 -41.6641 48.7215 -4.5633 -0.0000 0.0000 0.0000 67.8596 -4.1040 48.8195 -49.6335 52.8466 -25.8818 0.0000 0.0000 38.1224 12.3261 -10.2797 -2.2331 7.1250 -0.0000 -0.0000 32.8363 -38.0643 6.4737
9.3920 10.6655 18.3847 -8.5856 0.8685 29.1995 0.0000 0.0000 0.0000 13.5345 -13.8584 -118.2040 19.0078 19.9764 87.0980 -0.0147 3.4606 1.6248 0.4456 -4.2829 -11.8738 0.0000 0.0000 0.0000 12.6776 21.4764 -115.9845 -17.6609 -19.8683 83.1466 -0.1439 5.0679 10.7824 -0.0000 -0.0445 0.1224 9.4675 3.7121 -50.0272 1.3404 -0.4903 -11.3460 -3.1065 -0.2929 7.5481 -4.5795 -3.0092 -8.8763 4.0598 -5.3203 40.4951 1.7474 -2.4646 16.1968 0.0000 -0.0000 0.0000 -68.9789 11.2842 42.9941 63.8719 -57.2564 -37.5808 -0.0000 -0.0000 21.2698 -14.4266 23.4469 -5.8445 -7.1250 0.0000 -0.0000 -41.5056 48.7483 -4.5710 0.0000 -0.0000 0.0000 67.9775 -4.1491 48.6173 -49.6553 52.8555 -25.8992 0.0000 0.0000 38.1705 12.3398 -10.2548 -2.2303 7.1250 -0.0000 -0.0000 32.8365 -38.0414 6.4955
